<?xml version="1.0" encoding="utf-8"?>
<svg xmlns="http://www.w3.org/2000/svg" width="260" height="40">
 <g>
  <title>background</title>
  <rect fill="none" id="canvas_background" height="42" width="262" y="-1" x="-1"/>
 </g>
 <g>
  <title>Layer 1</title>
  <g id="svg_1">
   <g id="svg_2">
    <path id="svg_3" d="m56.308998,32.868999c-0.5,-0.357998 -1.25,-0.75 -2.248997,-1.177999c0.213997,-0.358 0.535999,-0.856001 0.963997,-1.5c0.785,-1.141001 1.355003,-2.034 1.713001,-2.677l2.355999,0.964001c-0.928997,1.643999 -1.856998,3.105999 -2.784,4.390999zm-1.391998,-21.631999l0,-1.605l4.819,0l0,-1.714l2.676998,0l0,1.714l3.962002,0l0,1.605l-3.962002,0l0,1.5l3.641003,0l0,1.391999l-3.641003,0l0,1.606l4.069004,0l0,1.606l-4.069004,0l0,1.393l-2.676998,0l0,-1.393l-5.248001,0l0,-1.606l5.248001,0l0,-1.606l-4.390999,0l0,-1.391999l4.390999,0l0,-1.5l-4.819,0zm1.070999,15.527999l0,-1.712999l18.312004,0l0,-1.5l-17.349003,0l0,-1.392l17.349003,0l0,-1.393l-18.205002,0l0,-1.82l20.881996,0l0,7.816999l-9.423996,0c0.141998,0.214001 0.355995,0.5 0.642998,0.857c0.642998,0.785999 1.070999,1.357 1.285004,1.712999l-2.142006,1.071001c-0.213997,-0.356001 -0.571999,-0.892 -1.070999,-1.606001c-0.571999,-0.785 -0.963997,-1.32 -1.178001,-1.605999l0.75,-0.429001l-9.851997,0l0,0.000999zm7.389,6.424999c-2.071999,0 -3.070999,-0.927998 -2.999001,-2.783998l0,-2.462999l2.785,0l0,1.82c-0.071999,0.927999 0.463001,1.355999 1.605999,1.285999l4.391006,0c1.212997,0.07 1.926994,-0.285999 2.141998,-1.070999c0.213997,-0.428001 0.355995,-0.964001 0.428001,-1.606001c0.355995,0.143 0.926994,0.357 1.713997,0.642c0.356003,0.144001 0.641998,0.250999 0.856003,0.320999c-0.072006,0.358002 -0.214005,0.75 -0.428001,1.178001c-0.071999,0.285 -0.144005,0.498999 -0.215004,0.643c-0.285995,1.427 -1.535995,2.105001 -3.748001,2.035002l-6.531998,0l0,-0.001003zm4.069,-21.952998l0,-1.605l3.855003,0l0,-1.714l2.57,0l0,1.714l4.925995,0l0,1.605l-4.925995,0l0,1.5l4.496994,0l0,1.391999l-4.496994,0l0,1.606l5.246994,0l0,1.606l-5.246994,0l0,1.393l-2.57,0l0,-1.393l-4.069,0l0,-1.606l4.069,0l0,-1.606l-3.640999,0l0,-1.391999l3.640999,0l0,-1.5l-3.855003,0zm9.959,21.311c-0.285995,-0.572001 -0.855995,-1.429001 -1.712997,-2.57c-0.5,-0.785 -0.857002,-1.356001 -1.070999,-1.713001l2.355995,-0.963999c0.356003,0.5 0.856003,1.213999 1.499001,2.142c0.643005,0.856998 1.106003,1.5 1.391998,1.927l-2.462997,1.177999z" fill="#EBBF40"/>
    <path id="svg_4" d="m82.508003,33.512001c-0.214005,-0.145 -0.643005,-0.466 -1.285004,-0.964001c-0.213997,-0.144001 -0.358002,-0.25 -0.428001,-0.320999c1.213005,-1.499001 1.748001,-3.890001 1.606003,-7.175001l0,-3.641001l6.210999,0l0,9.209002c0.07,1.712999 -0.68,2.569998 -2.249001,2.569998c-0.143997,0 -0.428001,0.035 -0.855995,0.107002c-0.428001,0 -0.75,0 -0.964005,0c-0.070999,-0.214001 -0.143997,-0.643002 -0.212997,-1.285c-0.072998,-0.286001 -0.107002,-0.500002 -0.107002,-0.643002c0.356003,0 0.785004,0 1.285004,0c0.855995,0.07 1.247993,-0.25 1.177994,-0.962999l0,-0.856001l-2.57,0c-0.215996,1.285 -0.751999,2.605 -1.607994,3.962002zm-1.5,-21.846001l0,-1.928l11.351997,0c-0.143997,-0.713 -0.321999,-1.285 -0.535004,-1.713l3.212006,-0.322c0.07,0.214 0.176994,0.536 0.320999,0.963c0.141998,0.500999 0.249001,0.856999 0.320999,1.071l10.921997,0l0,1.927999l-20.452995,0l0,1.392l18.311996,0l0,1.606l-20.989998,0l0,-2.999001l-2.461998,0l0,0.002001zm2.676994,8.566999l0,-4.391l20.240005,0l0,4.391l-20.240005,0zm0.75,5.997l-0.106995,1.82l2.354996,0l0,-1.82l-2.248001,0zm0,-3.212l0,1.713001l2.249001,0l0,-1.713001l-2.249001,0zm1.928001,-5.677l0,1.393l14.885002,0l0,-1.393l-14.885002,0zm3.748001,16.171001c0,-0.072002 -0.071999,-0.145 -0.213997,-0.215c-0.428001,-0.714001 -0.786003,-1.178001 -1.071007,-1.392c2.570007,-1.071001 3.783005,-2.927 3.641006,-5.569l0,-2.249001l1.82,0l0,2.249001c0,0.213999 -0.037003,0.5 -0.107002,0.857c-0.071999,0.713999 -0.143997,1.213999 -0.213997,1.498999c0.570999,0.429001 1.392998,1.108 2.462997,2.036001c0.213997,0.213999 0.391998,0.355 0.535995,0.427999l-1.284996,1.498999c-0.429001,-0.5 -1.178001,-1.249998 -2.249001,-2.248999c-0.572998,0.999001 -1.679001,2.035002 -3.32,3.106001zm-0.429001,-4.605001l0,-7.496l7.281998,0l0,7.496l-1.605995,0l0,-5.782999l-3.961998,0l0,5.782999l-1.714005,0zm11.566002,-0.107c-0.358002,-0.998999 -0.75,-1.962 -1.178001,-2.891998c0.141998,3.212999 -0.572998,5.782999 -2.141998,7.710999c-0.358002,-0.357998 -0.894005,-0.821999 -1.606003,-1.392998c1.428001,-1.429001 2.07,-3.676003 1.928001,-6.746002l0,-4.069l6.103996,0l0,9.102001c0,0.428999 0.177002,0.605999 0.536003,0.535999c0.356003,0 0.570999,-0.214001 0.642998,-0.643c0,-0.07 0,-0.285 0,-0.643c0.07,-0.712 0.107002,-1.248001 0.107002,-1.605c0.213997,0.070999 0.535004,0.178999 0.962997,0.320999c0.214005,0.072001 0.356003,0.107 0.429001,0.107c0,1.000999 -0.071999,1.890999 -0.213997,2.677c-0.214005,1.141998 -0.856003,1.713001 -1.927002,1.713001l-0.75,0c-1.214996,0.07 -1.784996,-0.607002 -1.712997,-2.034002l0,-2.57l-1.18,0.427999zm-1.178001,-5.675999l0,2.142l0.962997,-0.428001c0.713005,1.571001 1.178001,2.642 1.393005,3.212l0,-4.925999l-2.356003,0z" fill="#EBBF40"/>
    <path id="svg_5" d="m109.240997,17.877001c-0.571999,-0.927 -1.070999,-1.713001 -1.5,-2.356001c1.356003,-2.283999 2.463005,-4.854 3.32,-7.71l2.677002,0.429c-0.071999,0.144 -0.18,0.393001 -0.320999,0.75c-0.143997,0.643001 -0.429001,1.429 -0.857002,2.356l4.284004,0l0,2.354l-5.248001,0c-0.428001,0.857 -0.892998,1.713 -1.391998,2.571l6.103996,0l0,2.356001l-2.677002,0l0,3.212l3.105003,0l0,2.355999l-3.105003,0l0,5.033001l2.892006,-2.035c0.07,0.285999 0.141998,0.713999 0.213997,1.285c0.070999,0.571999 0.107002,1.035999 0.107002,1.392c-0.929001,0.358 -2.179001,1.105999 -3.748001,2.248999c-0.358002,0.214001 -0.787003,0.570999 -1.285004,1.070999l-1.5,-2.248999c0.499001,-0.5 0.75,-1.212999 0.75,-2.142l0,-4.604l-3.104996,0l0,-2.355999l3.104996,0l0,-3.212l-1.713997,0l0,-0.857l-0.106003,0.107zm11.352005,-3.641001c-1.070999,-1.427 -2.179001,-2.712 -3.32,-3.855l1.927994,-1.499c1.285004,1.285 2.463005,2.5 3.534004,3.641l-2.141998,1.713zm-2.57,19.168999l0,-18.311998l5.889999,0l0,-7.175l2.783997,0l0,7.175l5.890007,0l0,14.67c0.069992,2.212999 -1.070999,3.32 -3.427002,3.32c-1.143005,0.07 -2.321007,0.106998 -3.534004,0.106998c-0.213997,-1.070999 -0.392998,-1.927999 -0.534996,-2.569998c0.926994,0 1.927994,0 2.998993,0c1.212997,0.07 1.783997,-0.463001 1.712997,-1.606001l0,-1.177999l-9.102997,0l0,5.568998l-2.676994,0zm2.676994,-15.741999l0,2.677l9.102997,0l0,-2.677l-9.102997,0zm0,5.032999l0,2.785002l9.102997,0l0,-2.785002l-9.102997,0zm8.888,-8.459999l-1.712997,-1.713c1.285004,-1.285 2.462997,-2.498 3.533997,-3.641l1.927002,1.606c-0.285995,0.286 -0.714005,0.714 -1.285004,1.285c-1,1.071 -1.819992,1.893001 -2.462997,2.463z" fill="#EBBF40"/>
   </g>
   <g id="svg_6">
    <path id="svg_7" d="m141.964996,13.639l0,-1.63l6.097,0c0.039001,-0.884 0.059998,-2.151999 0.059998,-3.802l1.811005,0l-0.121002,3.802l6.096008,0l0,1.63l-6.036011,0c0.522003,3.461 2.63501,5.855 6.337006,7.183001c-0.403,0.402 -0.783997,0.904999 -1.147003,1.508999c-3.339996,-1.448999 -5.371994,-3.580999 -6.095993,-6.397999c-0.645004,2.737 -2.677002,4.928999 -6.096008,6.58c-0.121002,-0.161001 -0.341995,-0.463001 -0.664001,-0.905001c-0.241989,-0.282 -0.403,-0.483 -0.482986,-0.604c3.862991,-1.608999 5.914993,-4.063999 6.155991,-7.363999l-5.914001,0l0,-0.001z" fill="#EBBF40"/>
    <path id="svg_8" d="m157.356003,12.612l0,-1.268l3.259003,0l0,-3.137l1.388,0l0,3.138l2.896988,0l0,1.268l-2.896988,0l0,1.268l0.603989,-0.724999c0.604004,0.362 1.187012,0.704 1.75,1.026c1.046005,-1.73 1.850998,-3.762 2.414001,-6.096l1.509003,0.181c-0.240997,0.764999 -0.483002,1.549 -0.725006,2.354l4.044006,0l0,1.448999l-1.026001,0c-0.240997,2.937 -0.804993,5.130001 -1.690002,6.578001c0.723999,0.886 1.669006,1.671 2.837006,2.354c-0.041,0.08 -0.121002,0.200998 -0.242004,0.362c-0.281998,0.441999 -0.502991,0.823999 -0.664001,1.146999c-1.207001,-0.886 -2.132996,-1.73 -2.776001,-2.535999c-0.644989,0.725 -1.62999,1.608999 -2.957993,2.656c-0.322006,-0.483 -0.643005,-0.886 -0.964996,-1.208l-0.242004,0.423c-0.886002,-0.443001 -1.550003,-0.765001 -1.990997,-0.966002c-1.007004,0.644001 -2.395004,1.208 -4.165009,1.690001c-0.201996,-0.362 -0.421997,-0.805 -0.664001,-1.327999c0.160004,-0.040001 0.362,-0.101 0.604004,-0.181c1.408005,-0.281 2.333008,-0.543001 2.776001,-0.785c-0.121002,-0.081001 -0.322006,-0.182001 -0.604004,-0.302c-0.362,-0.201 -1.005997,-0.482 -1.931992,-0.845001c0.321991,-0.441999 0.623001,-0.904999 0.904999,-1.389l-1.569,0l0,-1.268l2.354004,0c0.200989,-0.361 0.381989,-0.684 0.542999,-0.965l1.447998,0.121l-0.48201,0.844999l3.380005,0l0,1.329c-0.321991,0.844 -0.783997,1.589001 -1.388,2.233c0.483002,0.202 1.005005,0.423 1.569,0.664l-0.362,0.483c1.208008,-0.804998 2.152008,-1.648998 2.837006,-2.535999c-0.564011,-0.965 -1.005997,-2.354 -1.328003,-4.165c-0.121002,0.162 -0.261993,0.383 -0.421997,0.664001c-0.081009,0.162 -0.141998,0.282 -0.182007,0.362c-0.041,-0.04 -0.121002,-0.14 -0.240997,-0.301c-0.121002,-0.202001 -0.222,-0.342 -0.302002,-0.423l-0.604004,0.845c-0.522995,-0.442 -1.207001,-0.925 -2.051987,-1.448l0,1.085999l-1.388,0l0,-1.509c-0.644012,0.724 -1.569,1.409 -2.776001,2.052c-0.121002,-0.241 -0.322998,-0.583 -0.604004,-1.026c-0.041,-0.08 -0.082001,-0.141 -0.121002,-0.182c1.246994,-0.481999 2.272995,-1.146999 3.078995,-1.992l-2.834991,0l0,0.002999zm1.75,-1.448c-0.643997,-0.764 -1.167007,-1.348 -1.569,-1.750999l0.966003,-0.724c0.200989,0.202 0.521988,0.523 0.964996,0.965c0.362,0.323 0.604004,0.542999 0.724991,0.665l-1.08699,0.844999zm0.604004,7.424c0.240997,0.082001 0.582001,0.222 1.026001,0.423c0.48201,0.161001 0.824005,0.302 1.026001,0.422001c0.522003,-0.402 0.925003,-0.965 1.207001,-1.690001l-2.656006,0l-0.602997,0.844999zm3.620987,-7.362999l-0.964996,-0.845c0.362,-0.322001 0.924988,-0.905 1.688995,-1.75l1.026001,0.783999c-0.320999,0.362 -0.903992,0.965 -1.75,1.811001zm3.501007,1.207c0.242004,2.052 0.643005,3.662 1.207993,4.829c0.604004,-1.125999 0.985001,-2.856999 1.146011,-5.19l-2.233002,0c-0.081009,0.118999 -0.121002,0.24 -0.121002,0.361z" fill="#EBBF40"/>
    <path id="svg_9" d="m172.748001,12.432l0,-1.509l1.509003,0l0,-2.716001l1.447998,0l0,2.716001l1.328003,0l0,1.509l-1.328003,0l0,2.656l1.207001,-0.302c0,0.523 0.020996,1.026 0.061005,1.509l-1.268005,0.362l0,3.983c0.039001,1.086 -0.462997,1.649 -1.509003,1.690001c-0.563004,0.040001 -1.026001,0.061001 -1.388,0.061001c-0.041,-0.523001 -0.121002,-1.046001 -0.242004,-1.569c0.040009,0 0.121002,0 0.242004,0c0.320999,0.039999 0.561996,0.059999 0.723999,0.059999c0.522995,0.040001 0.764999,-0.16 0.725006,-0.603001l0,-3.258999c-0.162003,0.041 -0.403,0.121 -0.725006,0.240999c-0.403,0.080999 -0.684998,0.161001 -0.843994,0.241001l-0.182007,-1.690001c0.201004,-0.04 0.501999,-0.1 0.904999,-0.181001c0.362,-0.08 0.643997,-0.139999 0.846008,-0.181l0,-3.018l-1.509003,0zm4.345993,10.079999c-0.322998,-0.323 -0.725006,-0.684999 -1.208008,-1.087c1.208008,-1.528999 1.770996,-4.022999 1.690002,-7.483999l0,-5.071l9.054001,0l0,4.165l-7.544006,0l0,1.509l3.018005,0l0,-1.509l1.509003,0l0,1.509l3.500992,0l0,1.328l-3.500992,0l0,1.509001l2.776993,0l0,5.130999l-1.44899,0l0,-0.785l-4.165009,0l0,0.785l-1.44899,0l0,-5.130999l2.776001,0l0,-1.509001l-3.078003,0c-0.041,2.616001 -0.68399,4.829 -1.931,6.639999zm1.992004,-12.374l0,1.629001l6.035004,0l0,-1.629001l-6.035004,0zm1.690002,8.510001l0,1.931999l4.164993,0l0,-1.931999l-4.164993,0z" fill="#EBBF40"/>
    <path id="svg_10" d="m196.951004,11.104l0,-0.724l-3.259003,0l0,0.724l-1.570007,0l0,-0.724l-4.043991,0l0,-1.268l4.043991,0l0,-1.026l1.570007,0l0,1.026l3.259003,0l0,-1.026l1.569,0l0,1.026l3.983002,0l0,1.268l-3.983002,0l0,0.724l-1.569,0zm-8.51001,3.199l0,-2.716001l13.700989,0l0,2.716001l-1.569,0l0,-1.569l-10.501999,0l0,1.569l-1.62999,0zm1.026001,8.269l0,-4.406l11.649002,0l0,4.406l-1.630005,0l0,-0.664l-8.389999,0l0,0.664l-1.628998,0zm1.147003,-5.432001l0,-3.440999l9.415009,0l0,3.440999l-9.415009,0zm0.481995,2.172001l0,1.508999l8.389999,0l0,-1.508999l-8.389999,0zm1.087006,-4.466001l0,1.147l6.277008,0l0,-1.147l-6.277008,0z" fill="#EBBF40"/>
    <path id="svg_11" d="m204.253998,13.759c-0.321991,-0.521999 -0.604004,-0.966 -0.845001,-1.328c0.764008,-1.288 1.388,-2.736 1.871002,-4.346l1.509003,0.241c-0.041,0.080999 -0.100998,0.222 -0.181,0.422c-0.081009,0.362 -0.242004,0.806 -0.483002,1.328l2.414993,0l0,1.328l-2.957993,0c-0.242004,0.481999 -0.503998,0.965 -0.785004,1.448l3.440002,0l0,1.328l-1.507996,0l0,1.811l1.75,0l0,1.328l-1.75,0l0,2.837l1.628998,-1.146999c0.039993,0.160999 0.080002,0.403 0.121002,0.723999c0.039993,0.323 0.060989,0.584 0.060989,0.785c-0.523987,0.201 -1.227997,0.623001 -2.112991,1.267c-0.201996,0.121 -0.443008,0.322001 -0.723999,0.604l-0.845001,-1.268c0.281006,-0.282 0.421997,-0.684 0.421997,-1.207001l0,-2.594999l-1.75,0l0,-1.328l1.75,0l0,-1.811l-0.966003,0l0,-0.483l-0.059998,0.061999zm6.399002,-2.052c-0.604004,-0.804999 -1.227997,-1.528 -1.871002,-2.172999l1.085999,-0.845c0.723999,0.724 1.389008,1.408999 1.992004,2.052l-1.207001,0.966zm-1.449005,10.804999l0,-10.322l3.319,0l0,-4.044l1.569,0l0,4.044l3.319992,0l0,8.269c0.040009,1.247 -0.604004,1.871 -1.931,1.871c-0.645004,0.040001 -1.30899,0.061001 -1.992004,0.061001c-0.120987,-0.604 -0.222,-1.086 -0.301987,-1.449001c0.521988,0 1.08699,0 1.689987,0c0.684006,0.040001 1.005005,-0.261 0.966003,-0.904999l0,-0.664001l-5.130997,0l0,3.139l-1.507996,0zm1.509003,-8.872999l0,1.509l5.130997,0l0,-1.509l-5.130997,0zm0,2.836l0,1.569l5.130997,0l0,-1.569l-5.130997,0zm5.009003,-4.768001l-0.966003,-0.965c0.725006,-0.724999 1.389008,-1.408 1.992004,-2.051999l1.085999,0.905c-0.162003,0.160999 -0.403,0.401999 -0.723999,0.724999c-0.563004,0.603001 -1.024994,1.066 -1.388,1.387z" fill="#EBBF40"/>
    <path id="svg_12" d="m219.766998,11.285l0,-1.448999l4.165009,0c0.321991,-0.684 0.561996,-1.288 0.723999,-1.811001l1.931,0.121l-0.723999,1.690001l6.820999,0l0,1.448999l-7.485001,0c-0.241013,0.522 -0.48201,1.066 -0.723999,1.629l9.052994,0l0,1.388l-9.716995,0c-0.121002,0.202 -0.281998,0.483 -0.48201,0.845c-0.161987,0.323 -0.281998,0.564 -0.362991,0.724999l9.113998,0l0,1.629l-3.803009,2.837l2.415009,0.785l-0.904999,1.569c-3.098999,-1.288 -5.997009,-2.434 -8.692001,-3.438999l0.783997,-1.328001c0.522003,0.161001 1.328003,0.463001 2.415009,0.905001c0.965988,0.323 1.709991,0.584 2.232986,0.785l3.320007,-2.354l-8.751999,0l0,-1.388c0.080002,-0.16 0.240997,-0.442 0.483002,-0.845c0.160004,-0.321 0.280991,-0.562 0.360992,-0.724l-3.01799,0l0,-1.388l3.682999,0c0.240997,-0.563001 0.481995,-1.107 0.723999,-1.629001l-3.561005,0l0,-0.002z" fill="#EBBF40"/>
    <path id="svg_13" d="m236.968994,13.397l0,-1.207001l9.416,0l0,1.207001l-3.561005,0c-0.483002,0.362 -0.966003,0.664 -1.449005,0.905c0.483002,0.603 0.88501,1.167 1.207001,1.69c1.811005,-0.844999 3.26001,-1.568999 4.346008,-2.172999l0.845001,1.268c-0.483002,0.242001 -1.228012,0.603001 -2.233002,1.086c0.080002,-0.040001 -0.020996,0 -0.302002,0.121c0.684006,1.931999 1.910995,3.279999 3.681992,4.043999c-0.362,0.362001 -0.704987,0.785 -1.025986,1.268002c-1.931,-1.046001 -3.240005,-2.616001 -3.923004,-4.708l-0.845001,0.362c0.240997,0.723999 0.362,1.508999 0.362,2.354c0.039993,1.85 -0.744995,2.775999 -2.354004,2.775999c-0.604004,0 -1.289001,0 -2.052002,0c-0.041,-0.080999 -0.082001,-0.220999 -0.121002,-0.421999c-0.082001,-0.403 -0.161987,-0.725 -0.241989,-0.966c0.643997,0 1.22699,0 1.75,0c1.04599,0.08 1.528992,-0.382 1.44899,-1.388c0,-0.322001 -0.020996,-0.624001 -0.060989,-0.905001c-1.811005,1.409 -4.065002,2.535 -6.761002,3.380001c-0.040009,-0.121 -0.12001,-0.282001 -0.240997,-0.482c-0.202011,-0.403 -0.362,-0.665001 -0.483002,-0.785c2.735001,-0.684 5.108994,-1.831001 7.121994,-3.440001c-0.080994,-0.240999 -0.181,-0.483 -0.302002,-0.723999c-1.690002,1.167 -3.681992,2.112 -5.975998,2.837c-0.080994,-0.161001 -0.201996,-0.382 -0.360992,-0.664001c-0.162003,-0.320999 -0.282013,-0.542999 -0.362,-0.664c2.534988,-0.643 4.565994,-1.487999 6.095993,-2.535c-0.041,-0.08 -0.121002,-0.181 -0.242004,-0.301c-0.080994,-0.161 -0.160995,-0.262 -0.240997,-0.302c-1.529999,0.764999 -3.160004,1.367999 -4.889999,1.811c-0.201996,-0.441999 -0.421997,-0.884 -0.664001,-1.328c2.374008,-0.402 4.406998,-1.106 6.097015,-2.112l-3.680008,0l0,-0.002999zm-2.172989,-0.724l0,-3.018001l6.277008,0c-0.041,-0.120999 -0.100998,-0.281 -0.181,-0.481999c-0.161011,-0.442 -0.281998,-0.764 -0.362,-0.966001l1.810989,-0.242c0.040009,0.121 0.121002,0.342 0.242004,0.664c0.160004,0.443 0.281006,0.784 0.362,1.026l5.552002,0l0,3.018001l-1.569,0l0,-1.690001l-10.501999,0l0,1.690001l-1.630005,0z" fill="#EBBF40"/>
   </g>
   <g id="svg_14">
    <path id="svg_15" d="m142.957993,31.332001c0.043991,0.306 0.127991,0.535 0.255005,0.686001c0.231995,0.274998 0.628998,0.412998 1.192993,0.412998c0.335999,0 0.610001,-0.036999 0.820999,-0.109001c0.399002,-0.139 0.598999,-0.397999 0.598999,-0.776999c0,-0.221001 -0.097992,-0.392 -0.294006,-0.514c-0.194992,-0.118 -0.50499,-0.223 -0.928986,-0.313l-0.726013,-0.16c-0.71199,-0.157001 -1.201996,-0.329 -1.467987,-0.513c-0.452011,-0.309 -0.677002,-0.792 -0.677002,-1.448999c0,-0.6 0.220993,-1.098001 0.662003,-1.495001c0.441986,-0.396999 1.089996,-0.594999 1.944992,-0.594999c0.714005,0 1.324005,0.187 1.828995,0.562c0.504013,0.373999 0.769012,0.917 0.792999,1.627998l-1.344986,0c-0.025009,-0.403 -0.205002,-0.688999 -0.541,-0.858999c-0.224014,-0.112 -0.501007,-0.167999 -0.833008,-0.167999c-0.371002,0 -0.664993,0.073 -0.884995,0.217999c-0.221008,0.146002 -0.331009,0.349001 -0.331009,0.609001c0,0.239 0.108002,0.417999 0.326004,0.535999c0.139999,0.079 0.436996,0.171 0.889999,0.277l1.175003,0.278c0.514999,0.121 0.901001,0.283001 1.158997,0.485001c0.399002,0.314999 0.598007,0.771 0.598007,1.368c0,0.611998 -0.236008,1.120001 -0.709,1.524c-0.473999,0.403999 -1.142014,0.605999 -2.005005,0.605999c-0.880997,0 -1.574997,-0.199001 -2.080002,-0.598s-0.757004,-0.945999 -0.757004,-1.642l1.335007,0l0,0.002001z" fill="#EBBF40"/>
    <path id="svg_16" d="m154.126999,28.465c0.212006,0.084999 0.404007,0.233 0.576996,0.445999c0.139008,0.172001 0.233002,0.384001 0.281006,0.636002c0.031006,0.165998 0.046005,0.41 0.046005,0.731998l-0.009003,3.121002l-1.326996,0l0,-3.153002c0,-0.188 -0.030014,-0.341999 -0.090012,-0.462999c-0.11499,-0.23 -0.328003,-0.346001 -0.636002,-0.346001c-0.358002,0 -0.604996,0.149 -0.73999,0.445c-0.070007,0.158001 -0.105011,0.347 -0.105011,0.568001l0,2.949001l-1.303986,0l0,-2.950001c0,-0.293001 -0.031006,-0.507 -0.091003,-0.640001c-0.109009,-0.239 -0.322006,-0.358999 -0.641006,-0.358999c-0.369003,0 -0.617996,0.119999 -0.744995,0.358999c-0.069,0.136 -0.104004,0.339001 -0.104004,0.608l0,2.980999l-1.313004,0l0,-4.943998l1.258011,0l0,0.723c0.160995,-0.257 0.311996,-0.439999 0.455002,-0.549999c0.250992,-0.193001 0.576996,-0.291 0.97699,-0.291c0.378006,0 0.684006,0.083 0.917007,0.25c0.187988,0.153999 0.330002,0.353001 0.427002,0.594999c0.169998,-0.290998 0.37999,-0.504 0.630997,-0.640999c0.266998,-0.136 0.563995,-0.205 0.890991,-0.205c0.218002,0.000999 0.432999,0.043999 0.645004,0.129z" fill="#EBBF40"/>
    <path id="svg_17" d="m158.080994,30.386999c0.240997,-0.030998 0.412994,-0.067999 0.515991,-0.113998c0.187012,-0.079 0.279007,-0.202002 0.279007,-0.369001c0,-0.202 -0.070999,-0.342999 -0.214005,-0.42c-0.14299,-0.077 -0.35199,-0.115999 -0.627991,-0.115999c-0.310013,0 -0.530014,0.076 -0.658005,0.226999c-0.093002,0.113001 -0.154007,0.265001 -0.184998,0.455l-1.249008,0c0.026001,-0.432999 0.14801,-0.789 0.365005,-1.067999c0.343994,-0.436001 0.934006,-0.654001 1.770996,-0.654001c0.544998,0 1.027008,0.107 1.451004,0.322001c0.421997,0.215 0.634003,0.622 0.634003,1.218l0,2.271999c0,0.158001 0.001999,0.348999 0.009003,0.573002c0.008987,0.168999 0.034988,0.285 0.076996,0.344997c0.041992,0.061001 0.106003,0.110001 0.190994,0.149002l0,0.190998l-1.408005,0c-0.039993,-0.099998 -0.066986,-0.194 -0.081985,-0.281998c-0.016006,-0.088001 -0.027008,-0.188 -0.037003,-0.299999c-0.180008,0.192997 -0.387009,0.358997 -0.622009,0.495998c-0.279999,0.16 -0.597,0.241001 -0.949997,0.241001c-0.451004,0 -0.822998,-0.128002 -1.117004,-0.384003c-0.293991,-0.256001 -0.440994,-0.618 -0.440994,-1.087997c0,-0.609001 0.237,-1.050001 0.709,-1.322001c0.259003,-0.148001 0.641006,-0.254002 1.145004,-0.317001l0.444,-0.055zm0.791,0.604c-0.082001,0.052 -0.167007,0.093 -0.25,0.125c-0.084,0.032001 -0.201004,0.061001 -0.348007,0.088001l-0.294998,0.055c-0.276001,0.047998 -0.475006,0.106998 -0.595001,0.177c-0.203003,0.118 -0.306,0.302 -0.306,0.550999c0,0.221001 0.061996,0.380001 0.186996,0.479c0.125,0.098999 0.276001,0.146999 0.455002,0.146999c0.283005,0 0.542999,-0.080997 0.781998,-0.244999c0.239014,-0.164001 0.362,-0.462 0.371002,-0.896l0,-0.481001l-0.000992,0z" fill="#EBBF40"/>
    <path id="svg_18" d="m163.942993,28.332001c0.016998,0.000999 0.054001,0.004 0.112,0.005999l0,1.327002c-0.082001,-0.009001 -0.154999,-0.015001 -0.218002,-0.018002c-0.063995,-0.002998 -0.115997,-0.004 -0.154999,-0.004c-0.520996,0 -0.871002,0.169001 -1.048996,0.509001c-0.100006,0.189999 -0.150009,0.483999 -0.150009,0.881001l0,2.368l-1.304001,0l0,-4.952002l1.235001,0l0,0.863001c0.199997,-0.33 0.375,-0.556 0.522003,-0.677c0.242996,-0.203001 0.557999,-0.304001 0.945007,-0.304001c0.025009,-0.001999 0.046005,-0.000999 0.061996,0.001001z" fill="#EBBF40"/>
    <path id="svg_19" d="m164.201996,29.415001l0,-0.922001l0.690002,0l0,-1.381001l1.281006,0l0,1.381001l0.804001,0l0,0.922001l-0.804001,0l0,2.617001c0,0.202999 0.024994,0.329998 0.076996,0.379997c0.050995,0.049 0.209,0.075001 0.473007,0.075001c0.038986,0 0.080994,0 0.125,-0.001999c0.043991,-0.000999 0.08699,-0.004002 0.128998,-0.007l0,0.966999l-0.613007,0.022999c-0.612,0.021 -1.029999,-0.084999 -1.253998,-0.317997c-0.145996,-0.148003 -0.218002,-0.377003 -0.218002,-0.687l0,-3.048l-0.690002,0z" fill="#EBBF40"/>
    <path id="svg_20" d="m174.735992,26.702l2.013992,0l0,6.696999l-1.304001,0l0,-4.529999c0,-0.129999 0.001007,-0.312 0.005005,-0.546999c0.003006,-0.235001 0.003998,-0.417 0.003998,-0.543001l-1.268997,5.621002l-1.360001,0l-1.259995,-5.621002c0,0.127001 0.000992,0.309 0.003998,0.543001s0.005005,0.417 0.005005,0.546999l0,4.529999l-1.304001,0l0,-6.696999l2.036987,0l1.218002,5.266001l1.210007,-5.266001z" fill="#EBBF40"/>
    <path id="svg_21" d="m179.800003,30.386999c0.240997,-0.030998 0.412994,-0.067999 0.516998,-0.113998c0.186996,-0.079 0.278992,-0.202002 0.278992,-0.369001c0,-0.202 -0.070999,-0.342999 -0.213989,-0.42s-0.352005,-0.115999 -0.628006,-0.115999c-0.309998,0 -0.529999,0.076 -0.658997,0.226999c-0.091995,0.113001 -0.154007,0.265001 -0.184006,0.455l-1.25,0c0.027008,-0.432999 0.14801,-0.789 0.365005,-1.067999c0.343994,-0.436001 0.934006,-0.654001 1.770996,-0.654001c0.544998,0 1.028,0.107 1.451004,0.322001c0.421997,0.215 0.634003,0.622 0.634003,1.218l0,2.271999c0,0.158001 0.002991,0.348999 0.009003,0.573002c0.007996,0.168999 0.033997,0.285 0.076996,0.344997s0.106003,0.110001 0.190994,0.149002l0,0.190998l-1.408997,0c-0.039993,-0.099998 -0.065994,-0.194 -0.082001,-0.281998c-0.014999,-0.088001 -0.026993,-0.188 -0.035995,-0.299999c-0.180008,0.192997 -0.387009,0.358997 -0.622009,0.495998c-0.280991,0.16 -0.597,0.241001 -0.950989,0.241001c-0.451004,0 -0.823013,-0.128002 -1.117004,-0.384003c-0.294006,-0.256001 -0.440994,-0.618 -0.440994,-1.087997c0,-0.609001 0.235992,-1.050001 0.709,-1.322001c0.258987,-0.148001 0.640991,-0.254002 1.143997,-0.317001l0.445999,-0.055zm0.791,0.604c-0.082001,0.052 -0.166,0.093 -0.25,0.125c-0.085007,0.032001 -0.201004,0.061001 -0.348007,0.088001l-0.294998,0.055c-0.276001,0.047998 -0.474991,0.106998 -0.595001,0.177c-0.205002,0.118 -0.306,0.302 -0.306,0.550999c0,0.221001 0.061996,0.380001 0.186996,0.479c0.125,0.098999 0.276001,0.146999 0.455002,0.146999c0.283005,0 0.542999,-0.080997 0.781998,-0.244999s0.362,-0.462 0.371002,-0.896l0,-0.481001l-0.000992,0z" fill="#EBBF40"/>
    <path id="svg_22" d="m185.660995,28.332001c0.016998,0.000999 0.054001,0.004 0.112,0.005999l0,1.327002c-0.082001,-0.009001 -0.154999,-0.015001 -0.218002,-0.018002s-0.11499,-0.004 -0.153992,-0.004c-0.520996,0 -0.871002,0.169001 -1.048996,0.509001c-0.100998,0.189999 -0.150009,0.483999 -0.150009,0.881001l0,2.368l-1.304001,0l0,-4.952002l1.235001,0l0,0.863001c0.199997,-0.33 0.375,-0.556 0.522003,-0.677c0.242004,-0.203001 0.557007,-0.304001 0.945007,-0.304001c0.023987,-0.001999 0.044998,-0.000999 0.060989,0.001001z" fill="#EBBF40"/>
    <path id="svg_23" d="m186.414993,26.725l1.272003,0l0,3.612l1.632996,-1.868l1.610001,0l-1.775009,1.844999l1.843002,3.084999l-1.575989,0l-1.200012,-2.115997l-0.535995,0.557999l0,1.559002l-1.272003,0l0,-6.675001l0.001007,0z" fill="#EBBF40"/>
    <path id="svg_24" d="m194.727997,28.547001c0.346008,0.153999 0.630005,0.398998 0.856003,0.731998c0.203003,0.294001 0.334,0.635 0.395004,1.023001c0.035004,0.228001 0.047989,0.555 0.042999,0.983l-3.60701,0c0.021011,0.497 0.192001,0.846001 0.518005,1.046001c0.197998,0.124001 0.436005,0.185997 0.714005,0.185997c0.294998,0 0.535004,-0.075996 0.718994,-0.226997c0.100006,-0.082001 0.188995,-0.195 0.266998,-0.341002l1.322006,0c-0.035004,0.294001 -0.195007,0.592001 -0.479996,0.896002c-0.443008,0.480999 -1.064011,0.722 -1.863007,0.722c-0.658997,0 -1.240997,-0.204002 -1.744003,-0.609001c-0.503998,-0.406002 -0.75499,-1.066999 -0.75499,-1.983c0,-0.858 0.22699,-1.516001 0.681992,-1.974001c0.455002,-0.458 1.044998,-0.685999 1.770996,-0.685999c0.429001,0 0.818008,0.077999 1.162003,0.232zm-1.935989,1.118999c-0.18399,0.188 -0.298004,0.442999 -0.345001,0.765999l2.230011,0c-0.02301,-0.342999 -0.138,-0.604 -0.345001,-0.782999c-0.206009,-0.177 -0.462006,-0.267 -0.767014,-0.267c-0.333008,0.000999 -0.591003,0.094999 -0.772995,0.284z" fill="#EBBF40"/>
    <path id="svg_25" d="m196.065002,29.415001l0,-0.922001l0.690994,0l0,-1.381001l1.281006,0l0,1.381001l0.804001,0l0,0.922001l-0.804001,0l0,2.617001c0,0.202999 0.024994,0.329998 0.076996,0.379997c0.050995,0.049 0.209,0.075001 0.473007,0.075001c0.039001,0 0.080994,0 0.125,-0.001999c0.043991,-0.000999 0.08699,-0.004002 0.128998,-0.007l0,0.966999l-0.613998,0.022999c-0.611008,0.021 -1.029007,-0.084999 -1.253998,-0.317997c-0.145004,-0.148003 -0.218002,-0.377003 -0.218002,-0.687l0,-3.048l-0.690002,0z" fill="#EBBF40"/>
    <path id="svg_26" d="m200.901001,27.856001l-1.311996,0l0,-1.195002l1.311996,0l0,1.195002zm-1.311996,0.591l1.311996,0l0,4.951998l-1.311996,0l0,-4.951998z" fill="#EBBF40"/>
    <path id="svg_27" d="m206.046005,28.731001c0.324005,0.268 0.486008,0.712 0.486008,1.332998l0,3.334999l-1.326004,0l0,-3.011999c0,-0.261 -0.035004,-0.459999 -0.104004,-0.599998c-0.125992,-0.255001 -0.366989,-0.382 -0.722,-0.382c-0.435989,0 -0.735001,0.185999 -0.896988,0.559c-0.084,0.196999 -0.126007,0.448 -0.126007,0.754l0,2.680998l-1.294998,0l0,-4.943998l1.253998,0l0,0.723c0.166,-0.254999 0.322998,-0.438 0.470993,-0.549999c0.265015,-0.200001 0.601013,-0.299 1.009003,-0.299c0.508987,0 0.925995,0.132999 1.25,0.402z" fill="#EBBF40"/>
    <path id="svg_28" d="m210.084,28.443001c0.315002,0.129 0.569,0.368999 0.763,0.716999l0,-0.712l1.263,0l0,4.697001c0,0.639 -0.108002,1.120998 -0.322998,1.445c-0.369003,0.556999 -1.078003,0.835999 -2.126007,0.835999c-0.632996,0 -1.149002,-0.125 -1.548996,-0.372997c-0.399994,-0.248001 -0.621994,-0.619003 -0.664001,-1.113003l1.408997,0c0.036011,0.152 0.095001,0.261002 0.177002,0.327c0.139008,0.118 0.374008,0.177002 0.70401,0.177002c0.465988,0 0.778992,-0.156002 0.935989,-0.467999c0.102997,-0.200001 0.154007,-0.536003 0.154007,-1.009003l0,-0.318001c-0.124008,0.212002 -0.257004,0.371002 -0.399002,0.477001c-0.257004,0.197002 -0.591995,0.295002 -1.003998,0.295002c-0.636002,0 -1.143997,-0.223 -1.524002,-0.670002c-0.380005,-0.446999 -0.570007,-1.050999 -0.570007,-1.814999c0,-0.736 0.183014,-1.354 0.549011,-1.856001c0.36499,-0.500999 0.884003,-0.750999 1.556992,-0.750999c0.246002,0 0.462006,0.038 0.647003,0.114zm0.440994,3.549999c0.209,-0.229 0.311996,-0.593 0.311996,-1.091999c0,-0.470001 -0.098999,-0.827002 -0.296005,-1.073002c-0.197998,-0.244999 -0.46199,-0.366999 -0.793991,-0.366999c-0.452011,0 -0.764999,0.212999 -0.936005,0.640999c-0.091003,0.227001 -0.136002,0.507 -0.136002,0.84c0,0.288 0.048004,0.543001 0.145004,0.768c0.175003,0.417999 0.488998,0.627003 0.940994,0.627003c0.30101,-0.001003 0.556015,-0.116001 0.764008,-0.344002z" fill="#EBBF40"/>
    <path id="svg_29" d="m220.755005,27.888l-3.544006,0l0,1.421999l3.253006,0l0,1.163l-3.253006,0l0,1.722l3.708008,0l0,1.205002l-5.075012,0l0,-6.697002l4.911011,0l0,1.185001z" fill="#EBBF40"/>
    <path id="svg_30" d="m221.309006,33.398998l1.690002,-2.507998l-1.617996,-2.436001l1.584,0l0.828003,1.434999l0.80899,-1.434999l1.541,0l-1.626999,2.413l1.690002,2.530998l-1.612,0l-0.852005,-1.488998l-0.860992,1.488998l-1.572006,0z" fill="#EBBF40"/>
    <path id="svg_31" d="m231.039001,28.978001c0.403992,0.427999 0.606003,1.053999 0.606003,1.880999c0,0.873001 -0.197998,1.537001 -0.593002,1.994001c-0.393997,0.458 -0.903,0.686001 -1.525009,0.686001c-0.395996,0 -0.724991,-0.098 -0.987991,-0.295002c-0.143005,-0.109001 -0.283005,-0.269001 -0.419998,-0.477001l0,2.581001l-1.281998,0l0,-6.900999l1.240997,0l0,0.730999c0.139999,-0.215 0.289993,-0.383999 0.447998,-0.508999c0.289001,-0.221001 0.634003,-0.332001 1.033005,-0.332001c0.582993,0 1.075989,0.215 1.479996,0.641001zm-0.994003,0.931999c-0.175995,-0.292999 -0.460999,-0.440001 -0.854996,-0.440001c-0.475006,0 -0.800003,0.223001 -0.977997,0.668001c-0.09201,0.236 -0.138,0.535999 -0.138,0.899c0,0.574999 0.154999,0.979998 0.462997,1.212999c0.18399,0.136002 0.401001,0.205002 0.651993,0.205002c0.365005,0 0.641998,-0.139 0.833008,-0.418003c0.190994,-0.278999 0.287003,-0.648998 0.287003,-1.112999c-0.001007,-0.382999 -0.088013,-0.719999 -0.264008,-1.014z" fill="#EBBF40"/>
    <path id="svg_32" d="m235.682007,28.547001c0.346008,0.153999 0.630997,0.398998 0.856003,0.731998c0.203003,0.294001 0.334,0.635 0.395004,1.023001c0.035004,0.228001 0.048996,0.555 0.041992,0.983l-3.606003,0c0.020004,0.497 0.193008,0.846001 0.518005,1.046001c0.197006,0.124001 0.434998,0.185997 0.712997,0.185997c0.294998,0 0.535004,-0.075996 0.720001,-0.226997c0.100006,-0.082001 0.188995,-0.195 0.266006,-0.341002l1.321991,0c-0.034988,0.294001 -0.194992,0.592001 -0.478989,0.896002c-0.444,0.480999 -1.065002,0.722 -1.863007,0.722c-0.658997,0 -1.240005,-0.204002 -1.744995,-0.609001c-0.503998,-0.406002 -0.755005,-1.066999 -0.755005,-1.983c0,-0.858 0.227997,-1.516001 0.682007,-1.974001c0.455994,-0.458 1.044998,-0.685999 1.770996,-0.685999c0.428986,0 0.817993,0.077999 1.162994,0.232zm-1.937012,1.118999c-0.182999,0.188 -0.296997,0.442999 -0.345001,0.765999l2.231003,0c-0.024002,-0.342999 -0.138992,-0.604 -0.345001,-0.782999c-0.207001,-0.177 -0.46199,-0.267 -0.76799,-0.267c-0.332001,0.000999 -0.590012,0.094999 -0.77301,0.284z" fill="#EBBF40"/>
    <path id="svg_33" d="m240.279007,28.332001c0.016006,0.000999 0.054001,0.004 0.111008,0.005999l0,1.327002c-0.082001,-0.009001 -0.154007,-0.015001 -0.219009,-0.018002c-0.061996,-0.002998 -0.11499,-0.004 -0.153992,-0.004c-0.520996,0 -0.872009,0.169001 -1.048996,0.509001c-0.101013,0.189999 -0.150009,0.483999 -0.150009,0.881001l0,2.368l-1.304001,0l0,-4.952002l1.235001,0l0,0.863001c0.199997,-0.33 0.375,-0.556 0.522995,-0.677c0.242004,-0.203001 0.557007,-0.304001 0.945007,-0.304001c0.024994,-0.001999 0.044983,-0.000999 0.061996,0.001001z" fill="#EBBF40"/>
    <path id="svg_34" d="m240.537994,29.415001l0,-0.922001l0.690002,0l0,-1.381001l1.280991,0l0,1.381001l0.804001,0l0,0.922001l-0.804001,0l0,2.617001c0,0.202999 0.026001,0.329998 0.078003,0.379997c0.050995,0.049 0.207993,0.075001 0.473007,0.075001c0.038986,0 0.080994,0 0.125,-0.001999c0.042999,-0.000999 0.085999,-0.004002 0.128998,-0.007l0,0.966999l-0.613007,0.022999c-0.612,0.021 -1.029999,-0.084999 -1.253998,-0.317997c-0.145004,-0.148003 -0.218002,-0.377003 -0.218002,-0.687l0,-3.048l-0.690994,0z" fill="#EBBF40"/>
    <path id="svg_35" d="m245.046997,31.818001c0.027008,0.23 0.085999,0.394001 0.178009,0.490997c0.160995,0.173 0.459,0.259003 0.893997,0.259003c0.255997,0 0.459,-0.038002 0.608994,-0.114002c0.151001,-0.076 0.227005,-0.188999 0.227005,-0.341c0,-0.144999 -0.061996,-0.255999 -0.182999,-0.331999c-0.122009,-0.076 -0.572998,-0.205999 -1.354996,-0.391001c-0.562012,-0.139999 -0.959015,-0.313 -1.189011,-0.522999c-0.229996,-0.206001 -0.345001,-0.502001 -0.345001,-0.890001c0,-0.458 0.180008,-0.849998 0.540009,-1.178999c0.360001,-0.329 0.865997,-0.493 1.51799,-0.493c0.62001,0 1.125,0.124001 1.514999,0.371c0.389999,0.247 0.614014,0.673 0.671005,1.278l-1.294006,0c-0.018997,-0.167 -0.065994,-0.298 -0.141998,-0.396c-0.14299,-0.175001 -0.386002,-0.263 -0.728989,-0.263c-0.283005,0 -0.484009,0.042999 -0.604004,0.131001c-0.121002,0.087999 -0.180008,0.191 -0.180008,0.309c0,0.147999 0.063004,0.254999 0.19101,0.323c0.127991,0.069 0.578003,0.188999 1.35199,0.358c0.516006,0.121 0.903,0.305 1.160004,0.549999c0.253998,0.249001 0.382004,0.559 0.382004,0.932001c0,0.49 -0.182999,0.891001 -0.548996,1.201998c-0.365005,0.311001 -0.931,0.466003 -1.695999,0.466003c-0.779007,0 -1.355011,-0.165001 -1.728012,-0.493c-0.371994,-0.329002 -0.556992,-0.747002 -0.556992,-1.256002l1.313995,0l0,0.001001z" fill="#EBBF40"/>
   </g>
   <line id="svg_36" y2="34.724" x2="137.631" y1="6.915" x1="137.631" stroke-miterlimit="10" stroke="#EBBF40" fill="none"/>
   <g id="svg_37">
    <path id="svg_38" d="m47.588001,22.219999c0,-14.241999 0,-19.364999 0,-19.364999s-7.967003,-2.855 -16.278002,-2.855c-8.312,0 -15.997,2.958 -15.997,2.958s0,4.201 0,19.261999c0,15.062002 16.138,19.775 16.138,19.775s16.137001,-5.532997 16.137001,-19.775z" fill="#EBBF40"/>
    <path id="svg_39" d="m44.388,22.566999c0,-11.509 0,-15.646999 0,-15.646999s-6.438,-2.309 -13.154001,-2.309c-6.716,0 -12.925999,2.39 -12.925999,2.39s0,3.395 0,15.565s13.039999,15.978998 13.039999,15.978998s13.040001,-4.469997 13.040001,-15.977999z" stroke-miterlimit="10" stroke-width="0.5" stroke="#231815" fill="none"/>
    <g id="svg_40">
     <g id="svg_41">
      <path id="svg_42" d="m42.959999,8.176l0,1.715l-0.135998,0c-0.045002,-0.327 -0.123001,-0.59 -0.237,-0.788c-0.114002,-0.193 -0.274002,-0.348 -0.483002,-0.46c-0.210999,-0.113999 -0.426998,-0.172 -0.651001,-0.172c-0.253998,0 -0.460999,0.075 -0.628998,0.232c-0.164001,0.154 -0.248001,0.329 -0.248001,0.526999c0,0.152 0.053001,0.291 0.158001,0.411c0.152,0.185 0.509998,0.431 1.077,0.734c0.462997,0.246 0.779999,0.44 0.950001,0.571c0.167999,0.134 0.299999,0.288 0.390999,0.469c0.09,0.179 0.137001,0.369 0.137001,0.566c0,0.376 -0.148003,0.699 -0.436001,0.969c-0.292,0.274 -0.666,0.409 -1.125999,0.409c-0.144001,0 -0.278,-0.013 -0.407001,-0.033c-0.072998,-0.013 -0.230999,-0.06 -0.468998,-0.135c-0.236,-0.076 -0.388,-0.113 -0.450001,-0.113c-0.062,0 -0.109001,0.021 -0.145,0.054c-0.035999,0.037 -0.060001,0.114 -0.079002,0.228l-0.133999,0l0,-1.7l0.133999,0c0.062,0.355 0.152,0.624001 0.258003,0.798c0.105,0.177 0.27,0.323 0.489998,0.44c0.221001,0.117001 0.462002,0.176001 0.728001,0.176001c0.302002,0 0.542999,-0.08 0.721001,-0.241c0.175999,-0.161 0.264999,-0.352 0.264999,-0.569c0,-0.123 -0.034,-0.245 -0.101002,-0.37c-0.066998,-0.123 -0.169998,-0.239 -0.313,-0.349c-0.093998,-0.071 -0.354,-0.227 -0.776997,-0.465c-0.425003,-0.237 -0.727001,-0.427 -0.906002,-0.568c-0.179001,-0.141 -0.313999,-0.298 -0.408001,-0.469c-0.091999,-0.171 -0.138,-0.359 -0.138,-0.563001c0,-0.356 0.138,-0.662 0.41,-0.917c0.271004,-0.259999 0.621002,-0.387 1.042004,-0.387c0.262997,0 0.542,0.067 0.834999,0.196c0.139,0.061 0.233997,0.093 0.288998,0.093c0.063,0 0.113003,-0.022 0.156002,-0.061c0.041,-0.037001 0.071999,-0.114 0.097,-0.228001l0.134998,0l0,0z" fill="#231815"/>
     </g>
    </g>
    <g id="svg_43">
     <path id="svg_44" d="m30.538,27.318001l-5.044001,-14.057001l0,11.161001c0,1.028 0.088001,1.665998 0.26,1.918999c0.238001,0.348 0.615,0.518 1.128,0.518l0.461,0l0,0.459002l-4.544001,0l0,-0.459002l0.462999,0c0.552,0 0.941,-0.212 1.174002,-0.637999c0.140999,-0.261002 0.210999,-0.861 0.210999,-1.798l0,-10.915c0,-0.739 -0.063,-1.277 -0.189999,-1.604c-0.091002,-0.235001 -0.255001,-0.436 -0.498001,-0.594c-0.242001,-0.161 -0.629999,-0.248 -1.16,-0.248l0,-0.448l3.698,0l4.736,13.065001l4.660002,-13.065001l3.698997,0l0,0.448l-0.452999,0c-0.558998,0 -0.952,0.216 -1.183998,0.645c-0.145,0.26 -0.211002,0.863 -0.211002,1.8l0,10.914c0,1.028 0.089001,1.666 0.268002,1.919001c0.235001,0.348 0.610001,0.518 1.125999,0.518l0.452999,0l0,0.459l-5.548,0l0,-0.459l0.462002,0c0.559998,0 0.952,-0.212 1.175999,-0.638c0.142002,-0.261 0.210999,-0.861 0.210999,-1.797998l0,-11.160001l-5.036999,14.056001l-0.316999,0z" fill="#231815"/>
    </g>
    <g id="svg_45">
     <path id="svg_46" d="m19.458,3.082l0.264999,0.838l-0.066999,0.021c-0.072001,-0.154 -0.151001,-0.27 -0.236,-0.348c-0.085001,-0.079 -0.188,-0.129 -0.309,-0.154c-0.120001,-0.022 -0.235001,-0.019 -0.344999,0.017c-0.124001,0.039 -0.214001,0.109 -0.271,0.21c-0.058001,0.101 -0.071001,0.201 -0.041,0.297c0.022999,0.073 0.07,0.133 0.140999,0.177c0.103001,0.067 0.316,0.131 0.641001,0.192c0.264999,0.051 0.448999,0.095 0.552999,0.134s0.191,0.096 0.263,0.17c0.073,0.075 0.125,0.16 0.155001,0.256c0.056999,0.185 0.036999,0.365 -0.065001,0.542c-0.101,0.178 -0.263,0.302 -0.488001,0.373c-0.070999,0.022 -0.139,0.037 -0.203999,0.047c-0.038,0.005 -0.122002,0.007 -0.25,0.007c-0.128,-0.001 -0.208,0.003 -0.239,0.012c-0.029001,0.01 -0.051001,0.026 -0.062,0.05c-0.012001,0.023 -0.013,0.065 -0.003,0.123l-0.066,0.021l-0.261999,-0.832l0.066,-0.021c0.085999,0.164 0.167999,0.281 0.247999,0.352c0.080999,0.069 0.183001,0.117 0.309,0.14c0.125999,0.023 0.254,0.015 0.382,-0.026c0.15,-0.046 0.254999,-0.122 0.316999,-0.229c0.062,-0.105 0.076,-0.211 0.042,-0.32c-0.018999,-0.059 -0.053999,-0.115 -0.105999,-0.165c-0.052,-0.051 -0.121,-0.092 -0.205999,-0.122c-0.057001,-0.021 -0.209002,-0.058 -0.453001,-0.109c-0.243999,-0.051 -0.42,-0.097 -0.530001,-0.139c-0.108999,-0.042 -0.199999,-0.097 -0.271999,-0.167c-0.070999,-0.069 -0.122999,-0.153 -0.153999,-0.254c-0.055,-0.174 -0.035,-0.346 0.059,-0.513c0.094,-0.168 0.244999,-0.284 0.449999,-0.349c0.129002,-0.04 0.275002,-0.052 0.440001,-0.034c0.076,0.008 0.128,0.009 0.155001,0c0.031,-0.01 0.053999,-0.027 0.066999,-0.052c0.014,-0.024 0.018,-0.066 0.011999,-0.126l0.064001,-0.019z" fill="#231815"/>
     <path id="svg_47" d="m20.837999,3.939c0.092001,-0.152 0.147001,-0.238 0.164001,-0.262c0.042999,-0.059 0.094,-0.11 0.150999,-0.15c0.058001,-0.041 0.118,-0.068 0.18,-0.084c0.105,-0.025 0.202,-0.016 0.291,0.027c0.091,0.042 0.161999,0.119 0.216,0.228c0.09,-0.176 0.171999,-0.297 0.247999,-0.363c0.075001,-0.066 0.158001,-0.11 0.249001,-0.132c0.089001,-0.021 0.173,-0.018 0.253,0.011c0.08,0.029 0.153,0.091 0.218,0.185c0.042,0.063 0.083,0.171 0.118999,0.322l0.173,0.718c0.025,0.104 0.050999,0.174 0.076,0.209c0.018999,0.024 0.046,0.042 0.084,0.053c0.037001,0.01 0.093,0.007 0.167,-0.01l0.016001,0.065l-0.825001,0.198l-0.016001,-0.066l0.036001,-0.009c0.07,-0.017 0.122999,-0.044 0.157,-0.082c0.023001,-0.026 0.035999,-0.062 0.038,-0.107c0,-0.021 -0.012001,-0.082 -0.035999,-0.179l-0.172001,-0.718c-0.033001,-0.136 -0.072001,-0.229 -0.118999,-0.277c-0.066,-0.066 -0.151001,-0.087 -0.256001,-0.062c-0.065001,0.016 -0.125,0.048 -0.183001,0.096c-0.057999,0.047 -0.122,0.126 -0.194,0.237l0.002001,0.021l0.021999,0.078l0.192001,0.797c0.028,0.114 0.050999,0.184 0.070999,0.208c0.019001,0.025 0.049,0.042 0.087999,0.053c0.040001,0.011 0.103001,0.006 0.188002,-0.015l0.015999,0.065l-0.844999,0.203l-0.017,-0.065c0.091999,-0.023 0.153,-0.049 0.183001,-0.08c0.029999,-0.03 0.045,-0.068 0.049,-0.116c0,-0.022 -0.011,-0.083 -0.035,-0.183l-0.173,-0.719c-0.033001,-0.136 -0.077,-0.229 -0.130001,-0.279c-0.073,-0.065 -0.156,-0.085 -0.252998,-0.062c-0.065001,0.017 -0.126001,0.049 -0.182001,0.1c-0.087999,0.077 -0.152,0.156 -0.190001,0.236l0.215,0.896c0.026001,0.11 0.051001,0.179 0.074001,0.208c0.022999,0.029 0.050999,0.048 0.084999,0.057c0.034,0.01 0.096001,0.003 0.187,-0.019l0.017,0.066l-0.826,0.199l-0.016001,-0.066c0.077002,-0.019 0.127001,-0.04 0.154001,-0.062c0.025999,-0.024 0.042,-0.056 0.049999,-0.096c0.007,-0.039 -0.000999,-0.111 -0.027,-0.214l-0.151999,-0.639c-0.044001,-0.184 -0.079,-0.301 -0.103001,-0.352c-0.018,-0.037 -0.039,-0.061 -0.059999,-0.072c-0.022001,-0.012 -0.048,-0.013 -0.081001,-0.005c-0.034,0.008 -0.071999,0.026 -0.115999,0.057l-0.043001,-0.06l0.454,-0.326l0.079,-0.019l0.087999,0.357z" fill="#231815"/>
     <path id="svg_48" d="m24.454,4.34c-0.15,0.165 -0.244001,0.263 -0.285,0.292c-0.061001,0.042 -0.129,0.071 -0.204,0.084c-0.118,0.021 -0.221001,-0.001 -0.309999,-0.067c-0.091002,-0.066 -0.148001,-0.165 -0.172001,-0.295c-0.014,-0.083 -0.008999,-0.157 0.017,-0.224c0.035999,-0.093 0.108,-0.188 0.221001,-0.285c0.111,-0.096 0.302999,-0.224 0.573999,-0.382l-0.011,-0.066c-0.031,-0.168 -0.079,-0.28 -0.144001,-0.333c-0.064999,-0.052 -0.147999,-0.07 -0.25,-0.051c-0.077999,0.014 -0.135,0.045 -0.173,0.096c-0.039999,0.051 -0.053999,0.102 -0.044998,0.157l0.023998,0.106c0.01,0.057 0.004002,0.103 -0.019999,0.139c-0.023001,0.037 -0.058001,0.058 -0.105001,0.066c-0.045,0.01 -0.084999,0 -0.119999,-0.027c-0.035,-0.027 -0.058001,-0.068 -0.068001,-0.123c-0.018999,-0.106 0.018,-0.214 0.110001,-0.321c0.091999,-0.109 0.236,-0.18 0.431999,-0.216c0.150002,-0.027 0.277,-0.024 0.383001,0.009c0.078999,0.025 0.143999,0.075 0.192999,0.15c0.031,0.05 0.062,0.156 0.092001,0.319l0.104,0.575c0.028,0.161 0.049999,0.259 0.062,0.294c0.012999,0.036 0.028,0.059 0.043999,0.067c0.016001,0.011 0.034,0.013 0.052,0.011c0.02,-0.005 0.036001,-0.012 0.050001,-0.023c0.021999,-0.02 0.063999,-0.074 0.125,-0.161l0.018999,0.103c-0.104,0.21 -0.219,0.326 -0.344999,0.348c-0.061001,0.011 -0.113001,-0.001 -0.156,-0.037c-0.043001,-0.036 -0.075001,-0.104 -0.094,-0.205zm-0.021,-0.119l-0.117001,-0.645c-0.173,0.107 -0.282999,0.181 -0.332001,0.222c-0.087999,0.072 -0.146,0.142 -0.177999,0.208c-0.031,0.067 -0.041,0.135 -0.028,0.206c0.016001,0.088 0.055,0.156 0.118999,0.206c0.063,0.049 0.129,0.067 0.198,0.054c0.095001,-0.017 0.206001,-0.101 0.338001,-0.251z" fill="#231815"/>
     <path id="svg_49" d="m25.444,2.642l0.055,0.382c0.105,-0.276 0.232,-0.424 0.382999,-0.447c0.066999,-0.009 0.125999,0.003 0.177,0.039c0.051001,0.035 0.08,0.08 0.087999,0.134c0.007,0.049 -0.003,0.092 -0.029999,0.129c-0.027,0.039 -0.063,0.061 -0.108,0.067c-0.042,0.007 -0.095001,-0.008 -0.155001,-0.042c-0.061001,-0.035 -0.103001,-0.051 -0.130001,-0.047c-0.021,0.003 -0.042999,0.02 -0.065998,0.048c-0.049002,0.059 -0.094002,0.15 -0.137001,0.275l0.118,0.815c0.014,0.094 0.035,0.164 0.066,0.208c0.021,0.03 0.054001,0.055 0.098,0.071c0.043001,0.017 0.104,0.019 0.181,0.008l0.01,0.066l-0.869999,0.127l-0.011,-0.067c0.087,-0.013 0.148998,-0.036 0.188,-0.07c0.026999,-0.023 0.043999,-0.058 0.049999,-0.104c0.003,-0.021 -0.000999,-0.082 -0.017,-0.181l-0.094999,-0.659c-0.029001,-0.198 -0.050001,-0.315 -0.064001,-0.352c-0.012999,-0.037 -0.031,-0.062 -0.056999,-0.077c-0.024,-0.013 -0.052,-0.019 -0.084999,-0.013c-0.036001,0.007 -0.077002,0.022 -0.123001,0.048l-0.028,-0.064l0.483999,-0.283l0.078001,-0.011z" fill="#231815"/>
     <path id="svg_50" d="m26.681999,1.962l0.065001,0.561l0.398001,-0.047l0.014999,0.131l-0.398001,0.045l0.130001,1.108c0.014,0.11 0.037001,0.183 0.073999,0.218c0.035,0.034 0.079,0.049 0.128,0.043c0.041,-0.004 0.08,-0.021 0.115,-0.051c0.035,-0.03 0.061001,-0.071 0.076,-0.124l0.072001,-0.009c-0.030001,0.127 -0.08,0.226 -0.152,0.297s-0.150999,0.112 -0.235001,0.122c-0.056999,0.006 -0.115,-0.003 -0.171999,-0.028c-0.059,-0.025 -0.106001,-0.066 -0.138,-0.123c-0.032999,-0.056 -0.056999,-0.145 -0.072001,-0.268l-0.132999,-1.147l-0.271,0.032l-0.007999,-0.062c0.066,-0.035 0.129999,-0.089 0.194,-0.163s0.118,-0.159 0.164,-0.254c0.022999,-0.051 0.052,-0.142 0.087999,-0.273l0.059999,-0.008z" fill="#231815"/>
     <path id="svg_51" d="m29.865999,3.994l-1.075998,-2.095l0.074999,1.698c0.007,0.156 0.028,0.253 0.063,0.29c0.048,0.051 0.123001,0.073 0.223,0.069l0.09,-0.004l0.003,0.07l-0.885,0.04l-0.002998,-0.07l0.089998,-0.004c0.108002,-0.005 0.183001,-0.041 0.225,-0.107c0.025,-0.042 0.036001,-0.133 0.028,-0.276l-0.073,-1.662c-0.004999,-0.112 -0.021999,-0.193 -0.049,-0.241c-0.018999,-0.036 -0.052999,-0.066 -0.101,-0.087c-0.048,-0.022 -0.124001,-0.031 -0.226999,-0.027l-0.003,-0.069l0.719999,-0.032l1.01,1.948l0.819,-2.029l0.719,-0.031l0.003,0.069l-0.087999,0.004c-0.110001,0.004 -0.184,0.04 -0.227001,0.107c-0.025,0.041 -0.035999,0.133 -0.028,0.275l0.073,1.662c0.006001,0.156 0.028,0.253 0.065001,0.291c0.048,0.05 0.122999,0.073 0.223,0.068l0.087999,-0.003l0.003,0.069l-1.080999,0.048l-0.002001,-0.069l0.09,-0.005c0.108,-0.004 0.183001,-0.041 0.224001,-0.107c0.025999,-0.041 0.035,-0.133 0.029999,-0.275l-0.073,-1.699l-0.884998,2.182l-0.063002,0.002z" fill="#231815"/>
     <path id="svg_52" d="m32.773998,3.704c-0.177998,0.133 -0.289997,0.211 -0.334,0.232c-0.066998,0.03 -0.140999,0.044 -0.217999,0.044c-0.118,-0.002 -0.215,-0.043 -0.291,-0.125s-0.112999,-0.19 -0.111,-0.323c0,-0.083 0.02,-0.156 0.058001,-0.216c0.052999,-0.084 0.143999,-0.164 0.270998,-0.237c0.127003,-0.075 0.341003,-0.162 0.637001,-0.266l0,-0.068c0.001999,-0.171 -0.022999,-0.29 -0.077999,-0.354c-0.053001,-0.064 -0.132,-0.097 -0.235001,-0.099c-0.078999,0 -0.141998,0.02 -0.188,0.061c-0.048,0.042 -0.071999,0.091 -0.072998,0.146l0.001999,0.109c0,0.057 -0.017002,0.102 -0.045002,0.132c-0.029999,0.031 -0.067997,0.046 -0.115997,0.046c-0.047001,0 -0.084002,-0.018 -0.113001,-0.051c-0.029001,-0.032 -0.043001,-0.077 -0.043001,-0.133c0.001001,-0.108 0.057001,-0.206 0.169003,-0.295c0.110996,-0.088 0.265999,-0.132 0.466,-0.129c0.150997,0.002 0.276997,0.029 0.372997,0.081c0.073002,0.04 0.127003,0.101 0.162003,0.184c0.021,0.054 0.030998,0.165 0.028999,0.331l-0.007,0.584c-0.000999,0.163 0,0.263 0.006001,0.3c0.004997,0.037 0.015999,0.061 0.029999,0.074c0.014,0.013 0.030998,0.019 0.049,0.019c0.021,0 0.038002,-0.003 0.054001,-0.012c0.024998,-0.016 0.077,-0.062 0.153,-0.136l-0.000999,0.107c-0.143002,0.186 -0.277,0.277 -0.405003,0.276c-0.060997,-0.001 -0.108997,-0.023 -0.144997,-0.066c-0.039001,-0.041 -0.056004,-0.114 -0.056004,-0.216zm0.001003,-0.122l0.007999,-0.654c-0.190002,0.072 -0.313,0.124 -0.368,0.155c-0.100002,0.053 -0.170002,0.11 -0.214001,0.17c-0.042999,0.06 -0.064999,0.125 -0.064999,0.197c-0.001003,0.09 0.023998,0.165 0.077,0.225c0.052998,0.06 0.114998,0.091 0.183998,0.092c0.096001,-0.002 0.221001,-0.062 0.378002,-0.185z" fill="#231815"/>
     <path id="svg_53" d="m34.063,2.22l-0.016998,0.387c0.154999,-0.251 0.307999,-0.374 0.458,-0.367c0.069,0.003 0.125,0.025 0.167999,0.07c0.043999,0.044 0.063999,0.094 0.061001,0.148c-0.001003,0.049 -0.019001,0.09 -0.053001,0.122c-0.034,0.033 -0.074001,0.048 -0.118999,0.046c-0.044003,-0.002 -0.091999,-0.025 -0.144001,-0.071c-0.053001,-0.045 -0.091999,-0.068 -0.118999,-0.069c-0.022999,-0.001 -0.047001,0.01 -0.075001,0.034c-0.058998,0.049 -0.119999,0.131 -0.185001,0.246l-0.035999,0.823c-0.001999,0.093 0.007,0.165 0.028,0.215c0.014999,0.034 0.042,0.063 0.082001,0.088c0.041,0.023 0.100002,0.039 0.177002,0.041l-0.002003,0.067l-0.879997,-0.038l0.002998,-0.067c0.087002,0.003 0.153,-0.008 0.195999,-0.033c0.033001,-0.019 0.056,-0.05 0.07,-0.092c0.007,-0.021 0.013,-0.083 0.018002,-0.183l0.028,-0.665c0.007999,-0.2 0.009998,-0.319 0.001999,-0.357c-0.006001,-0.039 -0.02,-0.067 -0.041,-0.085c-0.021,-0.02 -0.048,-0.028 -0.080997,-0.03c-0.038002,-0.001 -0.083,0.005 -0.131001,0.023l-0.017002,-0.069l0.529003,-0.188l0.079998,0.004z" fill="#231815"/>
     <path id="svg_54" d="m35.446999,1.397l-0.126999,1.704l0.465,-0.365c0.098999,-0.077 0.156002,-0.127 0.173,-0.149c0.009998,-0.014 0.016998,-0.028 0.018002,-0.043c0.000999,-0.025 -0.006001,-0.047 -0.026001,-0.067c-0.02,-0.02 -0.052002,-0.032 -0.100002,-0.038l0.005001,-0.06l0.744999,0.056l-0.003998,0.06c-0.103001,-0.005 -0.190002,0.004 -0.258999,0.028c-0.070004,0.023 -0.149002,0.07 -0.235001,0.137l-0.470001,0.373l0.396999,0.589c0.111,0.163 0.186001,0.266 0.225002,0.311c0.056,0.063 0.105,0.105 0.147999,0.126c0.030998,0.014 0.084,0.024 0.161999,0.031l-0.005001,0.067l-0.832996,-0.062l0.004997,-0.068c0.048,0.003 0.080002,-0.002 0.098,-0.014c0.019001,-0.012 0.028,-0.029 0.030003,-0.053c0.001999,-0.028 -0.02,-0.077 -0.064003,-0.145l-0.475998,-0.71l-0.042,0.569c-0.007999,0.111 -0.006001,0.184 0.007,0.221c0.014,0.036 0.034,0.063 0.062,0.08c0.027,0.016 0.09,0.03 0.184998,0.039l-0.004997,0.067l-0.871002,-0.065l0.004002,-0.068c0.086998,0.006 0.153,0.001 0.199001,-0.017c0.028,-0.012 0.047997,-0.032 0.064999,-0.06c0.021,-0.04 0.036999,-0.11 0.043999,-0.211l0.117001,-1.56c0.014,-0.198 0.02,-0.32 0.013,-0.365c-0.005001,-0.045 -0.016998,-0.077 -0.035,-0.096c-0.019001,-0.018 -0.045002,-0.027 -0.077,-0.03c-0.026001,-0.003 -0.067001,0.005 -0.121002,0.022l-0.026997,-0.068l0.523998,-0.171l0.085999,0.005z" fill="#231815"/>
     <path id="svg_55" d="m37.035999,3.132c-0.028,0.254 0.011002,0.459 0.119999,0.617c0.108002,0.158 0.247002,0.246 0.415001,0.264c0.112,0.014 0.213001,-0.008 0.302002,-0.06c0.09,-0.052 0.169998,-0.15 0.243,-0.293l0.053997,0.043c-0.044998,0.167 -0.137997,0.314 -0.278999,0.44c-0.140999,0.125 -0.306,0.179 -0.493999,0.158c-0.205997,-0.022 -0.373001,-0.121 -0.500999,-0.297s-0.178001,-0.398 -0.148998,-0.668c0.031998,-0.292 0.132,-0.512 0.299999,-0.659c0.167,-0.146 0.363998,-0.208 0.591,-0.184c0.190998,0.021 0.341999,0.102 0.451,0.241c0.109001,0.141 0.152,0.315 0.128998,0.527l-1.181999,-0.129zm0.013,-0.108l0.790001,0.086c0.005001,-0.11 0.000999,-0.188 -0.014,-0.235c-0.024002,-0.073 -0.063999,-0.133 -0.122002,-0.18c-0.056999,-0.046 -0.118999,-0.073 -0.186001,-0.081c-0.104,-0.011 -0.199997,0.02 -0.289997,0.09c-0.091,0.073 -0.150002,0.179 -0.178001,0.32z" fill="#231815"/>
     <path id="svg_56" d="m39.112999,2.162l-0.075001,0.56l0.398003,0.053l-0.019001,0.131l-0.396999,-0.054l-0.150002,1.104c-0.014,0.11 -0.008999,0.187 0.018002,0.229s0.063999,0.068 0.113998,0.074c0.041,0.005 0.082001,-0.001 0.124001,-0.022c0.042,-0.02 0.077,-0.053 0.104,-0.101l0.071999,0.01c-0.058998,0.116 -0.132999,0.199 -0.220997,0.25c-0.088001,0.051 -0.174,0.071 -0.257999,0.059c-0.057003,-0.008 -0.111,-0.031 -0.162003,-0.071c-0.049999,-0.039 -0.084,-0.089 -0.102001,-0.152c-0.017998,-0.062 -0.018997,-0.155 -0.001999,-0.277l0.155003,-1.146l-0.27,-0.037l0.008999,-0.061c0.070999,-0.017 0.146999,-0.054 0.228001,-0.109c0.079998,-0.056 0.153,-0.125 0.221001,-0.206c0.035,-0.044 0.085999,-0.124 0.153999,-0.242l0.058998,0.008z" fill="#231815"/>
     <path id="svg_57" d="m40.212002,2.844l-0.212002,1.364c-0.016998,0.106 -0.02,0.178 -0.009998,0.216c0.009998,0.036 0.028999,0.067 0.056,0.089c0.028,0.022 0.081997,0.04 0.162998,0.052l-0.010998,0.066l-0.825001,-0.128l0.009998,-0.066c0.083,0.013 0.139999,0.014 0.171001,0.001c0.029999,-0.012 0.057999,-0.035 0.078999,-0.069c0.022999,-0.035 0.042,-0.104 0.059002,-0.209l0.101997,-0.654c0.028,-0.185 0.041,-0.305 0.039001,-0.36c-0.002998,-0.041 -0.012001,-0.071 -0.028999,-0.09c-0.016003,-0.017 -0.040001,-0.03 -0.070999,-0.034c-0.035,-0.006 -0.079002,-0.003 -0.131001,0.008l-0.014999,-0.071l0.543999,-0.128l0.081001,0.013zm-0.016003,-0.912c0.052002,0.008 0.094002,0.032 0.124001,0.074c0.031002,0.043 0.042999,0.09 0.035,0.141c-0.007999,0.052 -0.033001,0.094 -0.075001,0.125c-0.042,0.031 -0.088997,0.042 -0.140999,0.035c-0.051998,-0.008 -0.094002,-0.034 -0.125,-0.077c-0.030998,-0.042 -0.042,-0.09 -0.034,-0.142c0.007999,-0.052 0.032001,-0.093 0.074001,-0.125c0.040001,-0.028 0.089001,-0.041 0.141998,-0.031z" fill="#231815"/>
     <path id="svg_58" d="m41.138,3.367c0.243,-0.203 0.452999,-0.287 0.632,-0.255c0.091999,0.017 0.167999,0.054 0.225998,0.112c0.058002,0.059 0.098003,0.144 0.117001,0.257c0.014,0.079 0.007,0.195 -0.021,0.348l-0.132,0.721c-0.02,0.106 -0.022999,0.181 -0.014,0.223c0.007999,0.033 0.025002,0.061 0.053001,0.083c0.027,0.023 0.081001,0.042 0.161999,0.057l-0.012001,0.067l-0.835999,-0.152l0.012001,-0.066l0.034,0.006c0.079998,0.014 0.135998,0.012 0.171997,-0.006c0.036003,-0.019 0.065002,-0.05 0.085003,-0.094c0.007999,-0.017 0.021,-0.075 0.038998,-0.172l0.125999,-0.691c0.027,-0.154 0.027,-0.27 0.001003,-0.347c-0.027,-0.077 -0.088001,-0.124 -0.183002,-0.141c-0.146,-0.027 -0.306999,0.026 -0.481998,0.161l-0.163002,0.89c-0.019997,0.115 -0.026997,0.187 -0.017998,0.217c0.008999,0.039 0.029999,0.069 0.056999,0.091c0.027,0.022 0.087002,0.041 0.179001,0.059l-0.010002,0.066l-0.836998,-0.153l0.012001,-0.067l0.036999,0.007c0.085999,0.016 0.147999,0.004 0.187,-0.034c0.038998,-0.038 0.068001,-0.118 0.091,-0.242l0.113998,-0.626c0.037003,-0.204 0.054001,-0.328 0.054001,-0.375c-0.000999,-0.045 -0.009998,-0.077 -0.026001,-0.097c-0.015999,-0.019 -0.039997,-0.032 -0.071999,-0.039c-0.034,-0.006 -0.077,-0.004 -0.127998,0.006l-0.016003,-0.072l0.547001,-0.113l0.080002,0.014l-0.067001,0.357z" fill="#231815"/>
     <path id="svg_59" d="m42.845001,4.489c-0.092003,-0.072 -0.155003,-0.159 -0.190002,-0.262c-0.035999,-0.102 -0.042,-0.206 -0.018997,-0.315c0.035999,-0.167 0.129997,-0.295 0.281998,-0.388c0.151001,-0.092 0.325001,-0.117 0.52,-0.075c0.16,0.036 0.290001,0.104 0.389999,0.208l0.355999,0.078c0.052002,0.012 0.083,0.02 0.09,0.024c0.007,0.006 0.013,0.012 0.015003,0.02c0.004997,0.013 0.004997,0.034 -0.001003,0.061c-0.007,0.032 -0.014999,0.054 -0.023998,0.065c-0.005001,0.005 -0.013,0.008 -0.022999,0.01c-0.010002,0.001 -0.041,-0.003 -0.093002,-0.014l-0.217999,-0.048c0.049999,0.103 0.058998,0.222 0.030998,0.36c-0.035,0.156 -0.123997,0.277 -0.267998,0.362c-0.143002,0.085 -0.317001,0.105 -0.518002,0.061c-0.083,-0.018 -0.166,-0.049 -0.246998,-0.092c-0.064003,0.035 -0.109001,0.068 -0.136002,0.099c-0.026001,0.03 -0.042,0.058 -0.047001,0.083c-0.003998,0.021 0,0.043 0.017002,0.067c0.015999,0.023 0.051998,0.046 0.108997,0.067c0.033001,0.013 0.118,0.036 0.254002,0.069c0.25,0.061 0.410999,0.104 0.483002,0.132c0.111,0.041 0.191998,0.102 0.244999,0.186c0.052998,0.083 0.069,0.176 0.047001,0.275c-0.030003,0.139 -0.123001,0.254 -0.279003,0.347c-0.229,0.136 -0.497997,0.172 -0.803997,0.104c-0.236,-0.051 -0.425003,-0.147 -0.563,-0.289c-0.079002,-0.082 -0.111,-0.155 -0.097,-0.221c0.005997,-0.029 0.019997,-0.057 0.039997,-0.083c0.031002,-0.041 0.087002,-0.095 0.170002,-0.161c0.010998,-0.009 0.086998,-0.061 0.23,-0.158c-0.055,-0.051 -0.092999,-0.095 -0.112999,-0.13c-0.019001,-0.036 -0.024002,-0.073 -0.016003,-0.111c0.008003,-0.042 0.037003,-0.089 0.084,-0.139c0.046001,-0.05 0.145,-0.114 0.293003,-0.192zm-0.151001,0.609c-0.070999,0.05 -0.126999,0.098 -0.167999,0.145s-0.067001,0.094 -0.076,0.14c-0.014,0.058 0.010998,0.117 0.071999,0.176c0.105,0.103 0.274002,0.178 0.506001,0.228c0.219002,0.048 0.389999,0.045 0.511002,-0.01c0.121998,-0.055 0.191998,-0.126 0.210999,-0.215c0.014,-0.063 -0.007,-0.116 -0.063999,-0.156c-0.058002,-0.041 -0.18,-0.083 -0.367001,-0.13c-0.274002,-0.066 -0.481998,-0.126 -0.625,-0.178zm0.694,-1.568c-0.091,-0.02 -0.174999,0 -0.250999,0.059s-0.132,0.163 -0.164001,0.312c-0.042,0.193 -0.033001,0.351 0.027,0.476c0.046001,0.095 0.118,0.153 0.215,0.173c0.092999,0.021 0.176998,0.002 0.251999,-0.055c0.075001,-0.056 0.129002,-0.159 0.160999,-0.308c0.042,-0.195 0.033001,-0.356 -0.026997,-0.484c-0.044003,-0.094 -0.115002,-0.151 -0.213001,-0.173z" fill="#231815"/>
    </g>
   </g>
  </g>
 </g>
</svg>